<svg id="Layer_2" data-name="Layer 2" xmlns="http://www.w3.org/2000/svg" viewBox="0 0 1772.955 1572.595"><defs><style>.cls-1{fill:none;}.cls-2,.cls-5{fill:#666460;}.cls-3,.cls-4{fill:#1c1a17;}.cls-4{stroke:#1c1a17;}.cls-4,.cls-5{stroke-miterlimit:10;}.cls-5{stroke:#666460;}</style></defs><path class="cls-1" d="M119.13,671.025C79.212,706.378,50,743.982,50,786.3c0,42.279,29.161,79.854,69.025,115.179a788.51,788.51,0,0,1,.1-230.451Z"/><path class="cls-1" d="M187.632,1017.2A736.06,736.06,0,0,0,339.1,1277.829c-6.736-58.272-15.162-115.938-37.244-154.1C280.456,1086.741,236.187,1052.667,187.632,1017.2Z"/><path class="cls-1" d="M301.855,448.868c21.989-38.006,30.437-95.35,37.159-153.373a736.058,736.058,0,0,0-151.1,259.694C236.357,519.8,280.5,485.782,301.855,448.868Z"/><path class="cls-1" d="M1584.563,554.839a736.069,736.069,0,0,0-150.569-258.88c6.713,57.865,15.175,115.005,37.105,152.909C1492.386,485.661,1536.306,519.572,1584.563,554.839Z"/><path class="cls-1" d="M1041.084,67.327a738.919,738.919,0,0,0-309.335-.051c54.261,23.133,108.792,44.135,154.728,44.135C932.379,111.411,986.863,90.441,1041.084,67.327Z"/><path class="cls-1" d="M730.75,1505.743a739.074,739.074,0,0,0,311.333-.051c-54.55-23.281-109.422-44.508-155.606-44.508C840.259,1461.184,785.34,1482.442,730.75,1505.743Z"/><path class="cls-1" d="M1471.1,1123.726c-22.023,38.064-30.464,95.525-37.19,153.639a736.062,736.062,0,0,0,150.933-259.814C1536.475,1052.891,1492.427,1086.863,1471.1,1123.726Z"/><path class="cls-1" d="M1605.685,632.3c-11.706-8.783-23.664-17.478-35.56-26.126-58.382-42.443-113.528-82.533-142.3-132.27-30.093-52.013-38.245-124.939-46.13-195.463-1.462-13.079-2.944-26.277-4.567-39.373A736.076,736.076,0,0,0,1118.5,88.49c-10.875,4.584-21.918,9.36-33.115,14.2-66.735,28.867-135.743,58.717-198.909,58.717S754.3,131.561,687.568,102.694c-11.253-4.868-22.348-9.667-33.276-14.272A736.084,736.084,0,0,0,395.876,238.7c-1.641,13.217-3.137,26.54-4.613,39.742-7.884,70.523-16.037,143.449-46.13,195.461-28.776,49.738-83.921,89.828-142.3,132.271-12.043,8.755-24.149,17.558-35.992,26.452a738.865,738.865,0,0,0-.161,307.213c11.9,8.935,24.056,17.778,36.153,26.572,58.382,42.445,113.527,82.534,142.3,132.272,30.093,52.012,38.245,124.937,46.13,195.462,1.5,13.44,3.025,27.006,4.7,40.457a736.085,736.085,0,0,0,257.481,149.92c11.2-4.713,22.578-9.631,34.123-14.625,66.735-28.868,135.743-58.717,198.909-58.717s132.174,29.849,198.909,58.717c11.49,4.969,22.813,9.865,33.963,14.558a736.106,736.106,0,0,0,257.686-150.22c1.658-13.331,3.167-26.772,4.656-40.089,7.885-70.525,16.037-143.451,46.13-195.463,28.776-49.738,83.922-89.827,142.3-132.272,11.95-8.687,23.964-17.422,35.72-26.246a738.9,738.9,0,0,0-.16-307.865Z"/><path class="cls-1" d="M1653.512,901.844c40.078-35.433,69.443-73.121,69.443-115.547,0-42.462-29.417-80.179-69.548-115.639a788.636,788.636,0,0,1,.105,231.186Z"/><path class="cls-1" d="M405.454,1395.37c2.413,11.968,5.166,23.488,8.411,34.306,12.31,41.043,29.552,66.816,54.26,81.112,23.42,13.549,53.057,15.453,93.268,5.986,11.525-2.713,23.336-6.234,35.4-10.323q-6.232-2.511-12.436-5.119A771.569,771.569,0,0,1,405.454,1395.37Z"/><path class="cls-1" d="M1367.719,178.324c-2.464-12.363-5.286-24.257-8.63-35.406-12.31-41.042-29.552-66.816-54.259-81.111-23.421-13.551-53.058-15.453-93.269-5.986-11.864,2.793-24.028,6.434-36.464,10.678q6.584,2.645,13.135,5.4A771.584,771.584,0,0,1,1367.719,178.324Z"/><path class="cls-1" d="M597.66,66.433c-12.368-4.216-24.467-7.834-36.267-10.612-16.655-3.921-31.5-5.892-44.836-5.892-18.863,0-34.712,3.94-48.432,11.878-24.708,14.3-41.949,40.069-54.26,81.111-3.313,11.046-6.112,22.823-8.561,35.062A771.537,771.537,0,0,1,584.359,71.9Q590.988,69.094,597.66,66.433Z"/><path class="cls-1" d="M1175.961,1506.385c12.135,4.118,24.012,7.661,35.6,10.389,40.211,9.466,69.847,7.565,93.269-5.987,24.707-14.3,41.949-40.068,54.259-81.11,3.276-10.922,6.05-22.559,8.479-34.65a771.6,771.6,0,0,1-179.336,106.305Q1182.115,1503.92,1175.961,1506.385Z"/><path class="cls-2" d="M1367.719,178.324A771.584,771.584,0,0,0,1188.232,71.9q-6.548-2.769-13.135-5.4c-18.292,6.244-37.176,13.805-56.6,21.991a736.076,736.076,0,0,1,258.623,150.582C1374.543,218.24,1371.581,197.692,1367.719,178.324Z"/><path class="cls-2" d="M405.454,1395.37a771.569,771.569,0,0,0,178.905,105.962q6.2,2.622,12.436,5.119c18.306-6.2,37.208-13.744,56.65-21.925a736.085,736.085,0,0,1-257.481-149.92C398.563,1355.461,401.551,1376.017,405.454,1395.37Z"/><path class="cls-2" d="M166.837,632.63c-16.743,12.573-32.955,25.331-47.707,38.395a788.51,788.51,0,0,0-.1,230.451c14.733,13.055,30.926,25.8,47.651,38.367a738.865,738.865,0,0,1,.161-307.213Z"/><path class="cls-2" d="M1584.843,1017.551a736.062,736.062,0,0,1-150.933,259.814q-1.293,11.174-2.529,22.339c-1.63,14.58-3.268,29.229-5.1,43.765q4.277-4.151,8.506-8.363A774.743,774.743,0,0,0,1638.11,978.472c-12.765,9.616-25.743,19.051-38.583,28.386Q1592.138,1012.229,1584.843,1017.551Z"/><path class="cls-2" d="M1175.961,1506.385q6.15-2.48,12.271-5.053a771.6,771.6,0,0,0,179.336-106.305c3.892-19.367,6.873-39.931,9.467-60.788a736.106,736.106,0,0,1-257.686,150.22C1138.777,1492.636,1157.667,1500.176,1175.961,1506.385Z"/><path class="cls-2" d="M1621.977,786.615a735.867,735.867,0,0,1-16.132,153.554c16.722-12.552,32.919-25.286,47.667-38.325a788.636,788.636,0,0,0-.105-231.186c-14.767-13.049-30.983-25.793-47.722-38.354A735.9,735.9,0,0,1,1621.977,786.615Z"/><path class="cls-2" d="M1433.994,295.959a736.069,736.069,0,0,1,150.569,258.88q7.423,5.424,14.964,10.9c12.771,9.285,25.679,18.669,38.377,28.23a774.67,774.67,0,0,0-203.118-355.841q-4.178-4.178-8.415-8.275c1.8,14.3,3.408,28.7,5.01,43.04C1432.239,280.564,1433.1,288.268,1433.994,295.959Z"/><path class="cls-2" d="M597.66,66.433q-6.667,2.676-13.3,5.466A771.537,771.537,0,0,0,405.3,177.98c-3.873,19.355-6.842,39.9-9.428,60.724A736.084,736.084,0,0,1,654.292,88.422C634.859,80.234,615.962,72.672,597.66,66.433Z"/><path class="cls-2" d="M187.911,555.189A736.058,736.058,0,0,1,339.014,295.5c.873-7.537,1.718-15.086,2.559-22.605,1.617-14.47,3.243-29.01,5.06-43.439q-4.44,4.3-8.828,8.674A774.721,774.721,0,0,0,134.6,594.309c12.845-9.68,25.907-19.177,38.831-28.573Q180.715,560.438,187.911,555.189Z"/><path class="cls-2" d="M339.1,1277.829A736.06,736.06,0,0,1,187.632,1017.2q-7.051-5.151-14.205-10.343c-12.99-9.445-26.121-18.992-39.03-28.725a774.69,774.69,0,0,0,203.408,356.972q4.426,4.425,8.92,8.763c-1.854-14.667-3.508-29.452-5.153-44.165Q340.353,1288.79,339.1,1277.829Z"/><path class="cls-2" d="M1042.083,1505.692a739.074,739.074,0,0,1-311.333.051c-7.792,3.327-15.578,6.7-23.332,10.048-12.418,5.372-24.894,10.767-37.368,15.981a781.219,781.219,0,0,0,432.7-.062c-12.424-5.195-24.849-10.568-37.218-15.919C1057.742,1512.42,1049.916,1509.035,1042.083,1505.692Z"/><path class="cls-2" d="M731.749,67.276a738.919,738.919,0,0,1,309.335.051c8.167-3.481,16.327-7.01,24.452-10.524,12.07-5.221,24.195-10.464,36.319-15.542a781.236,781.236,0,0,0-430.9-.063c12.174,5.1,24.348,10.362,36.468,15.6C715.5,60.3,723.623,63.811,731.749,67.276Z"/><path class="cls-3" d="M886.477,1411.184c-63.166,0-132.174,29.849-198.909,58.717-11.545,4.994-22.921,9.912-34.123,14.625a728.848,728.848,0,0,0,77.3,21.217c54.59-23.3,109.509-44.559,155.727-44.559,46.184,0,101.056,21.227,155.606,44.508a729.169,729.169,0,0,0,77.266-21.233c-11.15-4.693-22.473-9.589-33.963-14.558C1018.651,1441.033,949.643,1411.184,886.477,1411.184Z"/><path class="cls-3" d="M345.133,473.907c30.093-52.012,38.246-124.938,46.13-195.461,1.476-13.2,2.972-26.525,4.613-39.742A742.217,742.217,0,0,0,339.014,295.5c-6.722,58.023-15.17,115.367-37.159,153.373-21.357,36.914-65.5,70.929-113.944,106.321a729.134,729.134,0,0,0-21.074,77.441c11.843-8.894,23.949-17.7,35.992-26.452C261.212,563.735,316.357,523.645,345.133,473.907Z"/><path class="cls-3" d="M1427.821,473.908c28.776,49.737,83.922,89.827,142.3,132.27,11.9,8.648,23.854,17.343,35.56,26.126a729.068,729.068,0,0,0-21.122-77.465c-48.257-35.267-92.177-69.178-113.464-105.971-21.93-37.9-30.392-95.044-37.105-152.909a742.131,742.131,0,0,0-56.87-56.887c1.623,13.1,3.105,26.294,4.567,39.373C1389.576,348.969,1397.728,421.9,1427.821,473.908Z"/><path class="cls-3" d="M886.477,161.411c63.166,0,132.174-29.85,198.909-58.717,11.2-4.844,22.24-9.62,33.115-14.2a728.842,728.842,0,0,0-77.417-21.163c-54.221,23.114-108.705,44.084-154.607,44.084-45.936,0-100.467-21-154.728-44.135a729.318,729.318,0,0,0-77.457,21.146c10.928,4.605,22.023,9.4,33.276,14.272C754.3,131.561,823.311,161.411,886.477,161.411Z"/><path class="cls-3" d="M345.133,1098.687c-28.777-49.738-83.922-89.827-142.3-132.272-12.1-8.794-24.258-17.637-36.153-26.572a729.168,729.168,0,0,0,20.956,77.359c48.555,35.465,92.824,69.539,114.222,106.524,22.082,38.165,30.508,95.831,37.244,154.1a742.268,742.268,0,0,0,56.866,56.777c-1.676-13.451-3.2-27.017-4.7-40.457C383.378,1223.624,375.226,1150.7,345.133,1098.687Z"/><path class="cls-3" d="M50,786.3c0-42.315,29.212-79.919,69.13-115.272A766.912,766.912,0,0,1,134.6,594.309c-27.683,20.863-54.351,42.576-76.422,65.964C19.029,701.756,0,742.979,0,786.3s19.029,84.541,58.175,126.024c22.018,23.332,48.611,45,76.222,65.813a766.916,766.916,0,0,1-15.372-76.658C79.161,866.151,50,828.576,50,786.3Z"/><path class="cls-3" d="M561.393,1516.774c-40.211,9.467-69.848,7.563-93.268-5.986-24.708-14.3-41.95-40.069-54.26-81.112-3.245-10.818-6-22.338-8.411-34.306q-30.507-24.16-58.729-51.5c11.1,87.84,29.409,171.462,96.36,210.2,65.18,37.709,146.054,11.528,226.965-22.3a771.461,771.461,0,0,1-73.255-25.321C584.729,1510.54,572.918,1514.061,561.393,1516.774Z"/><path class="cls-3" d="M413.865,142.918c12.311-41.042,29.552-66.816,54.26-81.111,13.72-7.938,29.569-11.878,48.432-11.878,13.337,0,28.181,1.971,44.836,5.892,11.8,2.778,23.9,6.4,36.267,10.612A771.519,771.519,0,0,1,670.951,41.2c-81.212-34-162.444-60.521-227.866-22.669-67.135,38.842-85.359,122.817-96.452,210.922q28.175-27.31,58.671-51.471C407.753,165.741,410.552,153.964,413.865,142.918Z"/><path class="cls-3" d="M1714.779,660.273c-22.192-23.516-49.03-45.34-76.875-66.307a766.807,766.807,0,0,1,15.5,76.692c40.131,35.46,69.548,73.177,69.548,115.639,0,42.426-29.365,80.114-69.443,115.547a767.012,767.012,0,0,1-15.4,76.628c27.771-20.919,54.532-42.693,76.669-66.151,39.146-41.483,58.176-82.706,58.176-126.024S1753.925,701.756,1714.779,660.273Z"/><path class="cls-3" d="M1359.089,1429.677c-12.31,41.042-29.552,66.815-54.259,81.11-23.422,13.552-53.058,15.453-93.269,5.987-11.588-2.728-23.465-6.271-35.6-10.389a771.536,771.536,0,0,1-73.207,25.325c52.755,22.06,105.493,40.885,153.887,40.885,25.87,0,50.509-5.384,73.228-18.528,67.052-38.8,85.314-122.612,96.411-210.6q-28.193,27.359-58.712,51.558C1365.139,1407.118,1362.365,1418.755,1359.089,1429.677Z"/><path class="cls-3" d="M1211.561,55.821c40.211-9.467,69.848-7.565,93.269,5.986,24.707,14.3,41.949,40.069,54.259,81.111,3.344,11.149,6.166,23.043,8.63,35.406q30.466,24.176,58.652,51.526c-11.088-88.25-29.266-172.421-96.5-211.321-65.461-37.874-146.752-11.3-228.014,22.732A771.384,771.384,0,0,1,1175.1,66.5C1187.533,62.255,1199.7,58.614,1211.561,55.821Z"/><path class="cls-3" d="M1427.821,1098.687c-30.093,52.012-38.245,124.938-46.13,195.463-1.489,13.317-3,26.758-4.656,40.089a742.207,742.207,0,0,0,56.875-56.874c6.726-58.114,15.167-115.575,37.19-153.639,21.327-36.863,65.375-70.835,113.743-106.175a729.14,729.14,0,0,0,21-77.382c-11.756,8.824-23.77,17.559-35.72,26.246C1511.743,1008.86,1456.6,1048.949,1427.821,1098.687Z"/><path class="cls-4" d="M1584.563,554.839a729.068,729.068,0,0,1,21.122,77.465c16.739,12.561,32.955,25.305,47.722,38.354a766.807,766.807,0,0,0-15.5-76.692c-12.7-9.561-25.606-18.945-38.377-28.23Q1592,560.261,1584.563,554.839Z"/><path class="cls-5" d="M1119.349,1484.459a729.169,729.169,0,0,1-77.266,21.233c7.833,3.343,15.659,6.728,23.453,10.1,12.369,5.351,24.794,10.724,37.218,15.919a771.536,771.536,0,0,0,73.207-25.325C1157.667,1500.176,1138.777,1492.636,1119.349,1484.459Z"/><path class="cls-4" d="M730.75,1505.743a728.848,728.848,0,0,1-77.3-21.217c-19.442,8.181-38.344,15.721-56.65,21.925a771.461,771.461,0,0,0,73.255,25.321c12.474-5.214,24.95-10.609,37.368-15.981C715.172,1512.438,722.958,1509.07,730.75,1505.743Z"/><path class="cls-5" d="M1377.124,239.072a742.131,742.131,0,0,1,56.87,56.887c-.892-7.691-1.755-15.395-2.613-23.069-1.6-14.337-3.213-28.742-5.01-43.04q-28.164-27.339-58.652-51.526C1371.581,197.692,1374.543,218.24,1377.124,239.072Z"/><path class="cls-5" d="M1605.845,940.169a729.14,729.14,0,0,1-21,77.382q7.285-5.324,14.684-10.693c12.84-9.335,25.818-18.77,38.583-28.386a767.012,767.012,0,0,0,15.4-76.628C1638.764,914.883,1622.567,927.617,1605.845,940.169Z"/><path class="cls-4" d="M1433.91,1277.365a742.207,742.207,0,0,1-56.875,56.874c-2.594,20.857-5.575,41.421-9.467,60.788q30.5-24.189,58.712-51.558c1.833-14.536,3.471-29.185,5.1-43.765Q1432.628,1288.558,1433.91,1277.365Z"/><path class="cls-4" d="M339.014,295.5A742.217,742.217,0,0,1,395.876,238.7c2.586-20.829,5.555-41.369,9.428-60.724q-30.475,24.147-58.671,51.471c-1.817,14.429-3.443,28.969-5.06,43.439C340.732,280.409,339.887,287.958,339.014,295.5Z"/><path class="cls-5" d="M166.837,632.63a729.134,729.134,0,0,1,21.074-77.441q-7.188,5.252-14.483,10.547c-12.924,9.4-25.986,18.893-38.831,28.573a766.912,766.912,0,0,0-15.467,76.716C133.882,657.961,150.094,645.2,166.837,632.63Z"/><path class="cls-5" d="M654.292,88.422a729.318,729.318,0,0,1,77.457-21.146C723.623,63.811,715.5,60.3,707.419,56.8,695.3,51.56,683.125,46.3,670.951,41.2A771.519,771.519,0,0,0,597.66,66.433C615.962,72.672,634.859,80.234,654.292,88.422Z"/><path class="cls-4" d="M1041.084,67.327A728.842,728.842,0,0,1,1118.5,88.49c19.42-8.186,38.3-15.747,56.6-21.991a771.384,771.384,0,0,0-73.242-25.238c-12.124,5.078-24.249,10.321-36.319,15.542C1057.411,60.317,1049.251,63.846,1041.084,67.327Z"/><path class="cls-4" d="M187.632,1017.2a729.168,729.168,0,0,1-20.956-77.359c-16.725-12.564-32.918-25.312-47.651-38.367A766.916,766.916,0,0,0,134.4,978.134c12.909,9.733,26.04,19.28,39.03,28.725Q180.575,1012.054,187.632,1017.2Z"/><path class="cls-5" d="M395.964,1334.606a742.268,742.268,0,0,1-56.866-56.777q1.264,10.943,2.474,21.875c1.645,14.713,3.3,29.5,5.153,44.165q28.2,27.327,58.729,51.5C401.551,1376.017,398.563,1355.461,395.964,1334.606Z"/></svg>