<svg id="Layer_2" data-name="Layer 2" xmlns="http://www.w3.org/2000/svg" viewBox="0 0 1800 1800"><defs><style>.cls-1{fill:none;}.cls-2,.cls-5{fill:#666460;}.cls-3,.cls-4{fill:#1c1a17;}.cls-4{stroke:#1c1a17;}.cls-4,.cls-5{stroke-miterlimit:10;}.cls-5{stroke:#666460;}</style></defs><path class="cls-1" d="M132.653,784.728C92.735,820.081,63.523,857.684,63.523,900c0,42.279,29.161,79.853,69.025,115.179a788.51,788.51,0,0,1,.1-230.451Z"/><path class="cls-1" d="M201.154,1130.9A736.086,736.086,0,0,0,352.62,1391.532c-6.735-58.272-15.162-115.939-37.243-154.1C293.979,1200.444,249.709,1166.369,201.154,1130.9Z"/><path class="cls-1" d="M315.378,562.571c21.989-38.006,30.437-95.35,37.158-153.374a736.092,736.092,0,0,0-151.1,259.7C249.879,633.5,294.021,599.485,315.378,562.571Z"/><path class="cls-1" d="M1598.086,668.541a736.089,736.089,0,0,0-150.569-258.879c6.713,57.865,15.175,115.005,37.105,152.909C1505.909,599.363,1549.828,633.274,1598.086,668.541Z"/><path class="cls-1" d="M1054.607,181.029a738.963,738.963,0,0,0-309.335-.051C799.533,204.112,854.064,225.113,900,225.113,945.9,225.113,1000.386,204.143,1054.607,181.029Z"/><path class="cls-1" d="M744.273,1619.446a739.074,739.074,0,0,0,311.333-.051c-54.551-23.281-109.422-44.509-155.606-44.509C853.782,1574.886,798.863,1596.145,744.273,1619.446Z"/><path class="cls-1" d="M1484.623,1237.428c-22.023,38.065-30.464,95.526-37.19,153.64a736.06,736.06,0,0,0,150.932-259.814C1550,1166.594,1505.95,1200.565,1484.623,1237.428Z"/><path class="cls-1" d="M1619.207,746.007c-11.705-8.784-23.663-17.478-35.559-26.126-58.383-42.443-113.528-82.533-142.3-132.27-30.093-52.013-38.246-124.939-46.13-195.463-1.463-13.079-2.944-26.278-4.567-39.374a736.109,736.109,0,0,0-258.623-150.582c-10.876,4.584-21.918,9.361-33.115,14.2C1032.174,245.263,963.166,275.113,900,275.113S767.826,245.263,701.091,216.4c-11.253-4.867-22.348-9.666-33.276-14.271A736.064,736.064,0,0,0,409.4,352.407c-1.641,13.216-3.136,26.54-4.612,39.741C396.9,462.672,388.749,535.6,358.656,587.61c-28.776,49.737-83.921,89.827-142.3,132.271-12.042,8.754-24.148,17.557-35.991,26.451a738.869,738.869,0,0,0-.161,307.214c11.894,8.935,24.056,17.778,36.152,26.572,58.383,42.444,113.528,82.534,142.305,132.271,30.093,52.013,38.245,124.938,46.129,195.462,1.5,13.44,3.026,27.006,4.7,40.457a736.092,736.092,0,0,0,257.48,149.921c11.2-4.714,22.579-9.632,34.124-14.626,66.735-28.867,135.743-58.717,198.909-58.717s132.174,29.85,198.909,58.717c11.489,4.97,22.812,9.866,33.963,14.559a736.13,736.13,0,0,0,257.686-150.22c1.658-13.331,3.167-26.772,4.656-40.09,7.884-70.524,16.037-143.45,46.13-195.463,28.776-49.737,83.921-89.827,142.3-132.271,11.95-8.687,23.963-17.422,35.72-26.246a738.881,738.881,0,0,0-.161-307.865Z"/><path class="cls-1" d="M1667.035,1015.547c40.077-35.433,69.442-73.122,69.442-115.547,0-42.463-29.416-80.18-69.547-115.64a788.643,788.643,0,0,1,.105,231.187Z"/><path class="cls-1" d="M418.976,1509.073c2.414,11.967,5.166,23.487,8.411,34.306,12.311,41.043,29.553,66.816,54.261,81.112,23.42,13.549,53.057,15.453,93.267,5.985,11.525-2.713,23.337-6.233,35.4-10.323q-6.232-2.509-12.436-5.118A771.646,771.646,0,0,1,418.976,1509.073Z"/><path class="cls-1" d="M1381.242,292.026c-2.465-12.362-5.286-24.257-8.63-35.406-12.31-41.042-29.553-66.815-54.26-81.111-23.421-13.55-53.057-15.452-93.268-5.986-11.864,2.793-24.029,6.434-36.465,10.679q6.585,2.644,13.136,5.4A771.619,771.619,0,0,1,1381.242,292.026Z"/><path class="cls-1" d="M611.182,180.136c-12.367-4.216-24.466-7.835-36.267-10.613-16.655-3.921-31.5-5.892-44.835-5.892-18.863,0-34.712,3.94-48.432,11.878-24.708,14.3-41.95,40.069-54.26,81.112-3.313,11.045-6.113,22.823-8.562,35.061A771.634,771.634,0,0,1,597.882,185.6Q604.511,182.8,611.182,180.136Z"/><path class="cls-1" d="M1189.484,1620.087c12.134,4.118,24.012,7.661,35.6,10.389,40.211,9.467,69.846,7.566,93.268-5.986,24.707-14.3,41.95-40.068,54.26-81.11,3.276-10.922,6.05-22.559,8.479-34.65a771.637,771.637,0,0,1-179.336,106.305Q1195.638,1617.623,1189.484,1620.087Z"/><path class="cls-2" d="M1381.242,292.026A771.619,771.619,0,0,0,1201.755,185.6q-6.548-2.769-13.136-5.4c-18.291,6.243-37.175,13.805-56.6,21.99a736.109,736.109,0,0,1,258.623,150.582C1388.065,331.943,1385.1,311.4,1381.242,292.026Z"/><path class="cls-2" d="M418.976,1509.073a771.646,771.646,0,0,0,178.906,105.962q6.2,2.622,12.436,5.118c18.305-6.2,37.208-13.744,56.649-21.924a736.092,736.092,0,0,1-257.48-149.921C412.085,1469.163,415.074,1489.719,418.976,1509.073Z"/><path class="cls-2" d="M180.36,746.332c-16.744,12.574-32.955,25.331-47.707,38.4a788.51,788.51,0,0,0-.1,230.451c14.733,13.055,30.925,25.8,47.651,38.367a738.869,738.869,0,0,1,.161-307.214Z"/><path class="cls-2" d="M1598.365,1131.254a736.06,736.06,0,0,1-150.932,259.814q-1.294,11.174-2.529,22.339c-1.63,14.579-3.268,29.229-5.1,43.765q4.276-4.151,8.5-8.364a774.705,774.705,0,0,0,203.324-356.633c-12.764,9.615-25.742,19.05-38.582,28.385Q1605.66,1125.932,1598.365,1131.254Z"/><path class="cls-2" d="M1189.484,1620.087q6.149-2.478,12.271-5.052a771.637,771.637,0,0,0,179.336-106.305c3.891-19.368,6.873-39.931,9.467-60.788a736.13,736.13,0,0,1-257.686,150.22C1152.3,1606.339,1171.189,1613.878,1189.484,1620.087Z"/><path class="cls-2" d="M1635.5,900.318a735.941,735.941,0,0,1-16.132,153.554c16.722-12.552,32.918-25.286,47.667-38.325a788.643,788.643,0,0,0-.105-231.187c-14.768-13.049-30.983-25.792-47.723-38.353A735.826,735.826,0,0,1,1635.5,900.318Z"/><path class="cls-2" d="M1447.517,409.662a736.089,736.089,0,0,1,150.569,258.879q7.424,5.425,14.964,10.9c12.771,9.284,25.678,18.668,38.377,28.23a774.649,774.649,0,0,0-203.119-355.841q-4.176-4.177-8.414-8.276c1.8,14.3,3.407,28.7,5.01,43.04Q1446.191,398.1,1447.517,409.662Z"/><path class="cls-2" d="M611.182,180.136q-6.666,2.676-13.3,5.465A771.634,771.634,0,0,0,418.826,291.682c-3.872,19.355-6.842,39.9-9.428,60.725A736.064,736.064,0,0,1,667.815,202.125C648.382,193.936,629.485,186.375,611.182,180.136Z"/><path class="cls-2" d="M201.433,668.892a736.092,736.092,0,0,1,151.1-259.7q1.311-11.305,2.559-22.6c1.618-14.471,3.244-29.011,5.06-43.44q-4.438,4.3-8.827,8.675A774.7,774.7,0,0,0,148.119,708.012c12.845-9.68,25.908-19.178,38.831-28.573Q194.239,674.141,201.433,668.892Z"/><path class="cls-2" d="M352.62,1391.532A736.086,736.086,0,0,1,201.154,1130.9q-7.051-5.149-14.2-10.343c-12.991-9.444-26.121-18.992-39.03-28.724a774.652,774.652,0,0,0,203.408,356.971q4.427,4.427,8.919,8.763c-1.853-14.667-3.507-29.451-5.152-44.164Q353.874,1402.492,352.62,1391.532Z"/><path class="cls-2" d="M1055.606,1619.4a739.074,739.074,0,0,1-311.333.051c-7.793,3.326-15.579,6.694-23.332,10.048-12.419,5.372-24.894,10.766-37.368,15.981a781.219,781.219,0,0,0,432.7-.062c-12.424-5.195-24.849-10.569-37.219-15.919C1071.265,1626.123,1063.439,1622.738,1055.606,1619.4Z"/><path class="cls-2" d="M745.272,180.978a738.963,738.963,0,0,1,309.335.051c8.166-3.481,16.327-7.009,24.451-10.524,12.071-5.221,24.195-10.464,36.32-15.542a781.252,781.252,0,0,0-430.9-.062c12.175,5.1,24.348,10.362,36.469,15.6C729.026,174,737.146,177.514,745.272,180.978Z"/><path class="cls-3" d="M900,1524.886c-63.166,0-132.174,29.85-198.909,58.717-11.545,4.994-22.922,9.912-34.124,14.626a729.344,729.344,0,0,0,77.306,21.217c54.59-23.3,109.509-44.56,155.727-44.56,46.184,0,101.055,21.228,155.606,44.509a729.234,729.234,0,0,0,77.266-21.233c-11.151-4.693-22.474-9.589-33.963-14.559C1032.174,1554.736,963.166,1524.886,900,1524.886Z"/><path class="cls-3" d="M358.656,587.61c30.093-52.013,38.246-124.938,46.13-195.462,1.476-13.2,2.971-26.525,4.612-39.741a742.385,742.385,0,0,0-56.862,56.79c-6.721,58.024-15.169,115.368-37.158,153.374-21.357,36.914-65.5,70.928-113.945,106.321a728.874,728.874,0,0,0-21.073,77.44c11.843-8.894,23.949-17.7,35.991-26.451C274.735,677.437,329.88,637.347,358.656,587.61Z"/><path class="cls-3" d="M1441.344,587.611c28.776,49.737,83.921,89.827,142.3,132.27,11.9,8.648,23.854,17.342,35.559,26.126a728.909,728.909,0,0,0-21.121-77.466c-48.258-35.267-92.177-69.178-113.464-105.97-21.93-37.9-30.392-95.044-37.105-152.909a742.324,742.324,0,0,0-56.87-56.888c1.623,13.1,3.1,26.3,4.567,39.374C1403.1,462.672,1411.251,535.6,1441.344,587.611Z"/><path class="cls-3" d="M900,275.113c63.166,0,132.174-29.85,198.909-58.717,11.2-4.843,22.239-9.62,33.115-14.2a729.384,729.384,0,0,0-77.417-21.163C1000.386,204.143,945.9,225.113,900,225.113c-45.936,0-100.467-21-154.728-44.135a729.083,729.083,0,0,0-77.457,21.147c10.928,4.6,22.023,9.4,33.276,14.271C767.826,245.263,836.834,275.113,900,275.113Z"/><path class="cls-3" d="M358.656,1212.389c-28.777-49.737-83.922-89.827-142.3-132.271-12.1-8.794-24.258-17.637-36.152-26.572a729.146,729.146,0,0,0,20.955,77.358c48.555,35.465,92.825,69.54,114.223,106.524,22.081,38.165,30.508,95.832,37.243,154.1a742.267,742.267,0,0,0,56.867,56.776c-1.676-13.451-3.2-27.017-4.7-40.457C396.9,1337.327,388.749,1264.4,358.656,1212.389Z"/><path class="cls-3" d="M63.523,900c0-42.316,29.212-79.919,69.13-115.272a767.133,767.133,0,0,1,15.466-76.716c-27.682,20.862-54.35,42.576-76.421,65.964C32.552,815.459,13.523,856.681,13.523,900S32.552,984.541,71.7,1026.023c22.017,23.332,48.611,45,76.222,65.814a766.972,766.972,0,0,1-15.372-76.658C92.684,979.853,63.523,942.279,63.523,900Z"/><path class="cls-3" d="M574.915,1630.476c-40.21,9.468-69.847,7.564-93.267-5.985-24.708-14.3-41.95-40.069-54.261-81.112-3.245-10.819-6-22.339-8.411-34.306q-30.505-24.161-58.729-51.5c11.1,87.84,29.41,171.462,96.361,210.2,65.18,37.71,146.053,11.529,226.965-22.294a771.468,771.468,0,0,1-73.255-25.322C598.252,1624.243,586.44,1627.763,574.915,1630.476Z"/><path class="cls-3" d="M427.388,256.621c12.31-41.043,29.552-66.816,54.26-81.112,13.72-7.938,29.569-11.878,48.432-11.878,13.336,0,28.18,1.971,44.835,5.892,11.8,2.778,23.9,6.4,36.267,10.613A771.152,771.152,0,0,1,684.473,154.9C603.261,120.9,522.03,94.379,456.608,132.231c-67.135,38.842-85.359,122.817-96.453,210.922q28.176-27.31,58.671-51.471C421.275,279.444,424.075,267.666,427.388,256.621Z"/><path class="cls-3" d="M1728.3,773.976c-22.192-23.516-49.031-45.34-76.875-66.307a766.845,766.845,0,0,1,15.5,76.691c40.131,35.46,69.547,73.177,69.547,115.64,0,42.425-29.365,80.114-69.442,115.547a767.129,767.129,0,0,1-15.4,76.628c27.771-20.92,54.533-42.693,76.67-66.152,39.146-41.482,58.175-82.7,58.175-126.023S1767.448,815.459,1728.3,773.976Z"/><path class="cls-3" d="M1372.612,1543.38c-12.31,41.042-29.553,66.815-54.26,81.11-23.422,13.552-53.057,15.453-93.268,5.986-11.588-2.728-23.466-6.271-35.6-10.389a771.262,771.262,0,0,1-73.207,25.326c52.755,22.06,105.493,40.884,153.887,40.884,25.87,0,50.509-5.383,73.227-18.528,67.053-38.8,85.315-122.611,96.412-210.6q-28.193,27.357-58.712,51.558C1378.662,1520.821,1375.888,1532.458,1372.612,1543.38Z"/><path class="cls-3" d="M1225.084,169.523c40.211-9.466,69.847-7.564,93.268,5.986,24.707,14.3,41.95,40.069,54.26,81.111,3.344,11.149,6.165,23.044,8.63,35.406q30.467,24.175,58.652,51.526c-11.088-88.25-29.266-172.42-96.5-211.321-65.46-37.874-146.752-11.3-228.013,22.732a771.275,771.275,0,0,1,73.241,25.239C1201.055,175.957,1213.22,172.316,1225.084,169.523Z"/><path class="cls-3" d="M1441.344,1212.389c-30.093,52.013-38.246,124.939-46.13,195.463-1.489,13.318-3,26.759-4.656,40.09a742.567,742.567,0,0,0,56.875-56.874c6.726-58.114,15.167-115.575,37.19-153.64,21.327-36.863,65.375-70.834,113.742-106.174a729.273,729.273,0,0,0,21-77.382c-11.757,8.824-23.77,17.559-35.72,26.246C1525.265,1122.562,1470.12,1162.652,1441.344,1212.389Z"/><path class="cls-4" d="M1598.086,668.541a728.909,728.909,0,0,1,21.121,77.466c16.74,12.561,32.955,25.3,47.723,38.353a766.845,766.845,0,0,0-15.5-76.691c-12.7-9.562-25.606-18.946-38.377-28.23Q1605.519,673.964,1598.086,668.541Z"/><path class="cls-5" d="M1132.872,1598.162a729.234,729.234,0,0,1-77.266,21.233c7.833,3.343,15.659,6.728,23.452,10.1,12.37,5.35,24.8,10.724,37.219,15.919a771.262,771.262,0,0,0,73.207-25.326C1171.189,1613.878,1152.3,1606.339,1132.872,1598.162Z"/><path class="cls-4" d="M744.273,1619.446a729.344,729.344,0,0,1-77.306-21.217c-19.441,8.18-38.344,15.72-56.649,21.924a771.468,771.468,0,0,0,73.255,25.322c12.474-5.215,24.949-10.609,37.368-15.981C728.694,1626.14,736.48,1622.772,744.273,1619.446Z"/><path class="cls-5" d="M1390.647,352.774a742.324,742.324,0,0,1,56.87,56.888q-1.338-11.538-2.613-23.07c-1.6-14.337-3.214-28.742-5.01-43.04q-28.164-27.339-58.652-51.526C1385.1,311.4,1388.065,331.943,1390.647,352.774Z"/><path class="cls-5" d="M1619.368,1053.872a729.273,729.273,0,0,1-21,77.382q7.287-5.325,14.685-10.694c12.84-9.335,25.818-18.77,38.582-28.385a767.129,767.129,0,0,0,15.4-76.628C1652.286,1028.586,1636.09,1041.32,1619.368,1053.872Z"/><path class="cls-4" d="M1447.433,1391.068a742.567,742.567,0,0,1-56.875,56.874c-2.594,20.857-5.576,41.42-9.467,60.788q30.5-24.189,58.712-51.558c1.833-14.536,3.471-29.186,5.1-43.765Q1446.15,1402.261,1447.433,1391.068Z"/><path class="cls-4" d="M352.536,409.2a742.385,742.385,0,0,1,56.862-56.79c2.586-20.829,5.556-41.37,9.428-60.725q-30.476,24.149-58.671,51.471c-1.816,14.429-3.442,28.969-5.06,43.44Q353.835,397.872,352.536,409.2Z"/><path class="cls-5" d="M180.36,746.332a728.874,728.874,0,0,1,21.073-77.44q-7.188,5.251-14.483,10.547c-12.923,9.395-25.986,18.893-38.831,28.573a767.133,767.133,0,0,0-15.466,76.716C147.405,771.663,163.616,758.906,180.36,746.332Z"/><path class="cls-5" d="M667.815,202.125a729.083,729.083,0,0,1,77.457-21.147c-8.126-3.464-16.246-6.976-24.33-10.473-12.121-5.242-24.294-10.506-36.469-15.6a771.152,771.152,0,0,0-73.291,25.235C629.485,186.375,648.382,193.936,667.815,202.125Z"/><path class="cls-4" d="M1054.607,181.029a729.384,729.384,0,0,1,77.417,21.163c19.42-8.185,38.3-15.747,56.6-21.99a771.275,771.275,0,0,0-73.241-25.239c-12.125,5.078-24.249,10.321-36.32,15.542C1070.934,174.02,1062.773,177.548,1054.607,181.029Z"/><path class="cls-4" d="M201.154,1130.9a729.146,729.146,0,0,1-20.955-77.358c-16.726-12.564-32.918-25.312-47.651-38.367a766.972,766.972,0,0,0,15.372,76.658c12.909,9.732,26.039,19.28,39.03,28.724Q194.1,1125.757,201.154,1130.9Z"/><path class="cls-5" d="M409.487,1448.308a742.267,742.267,0,0,1-56.867-56.776q1.264,10.943,2.475,21.875c1.645,14.713,3.3,29.5,5.152,44.164q28.2,27.329,58.729,51.5C415.074,1489.719,412.085,1469.163,409.487,1448.308Z"/></svg>